<mxfile host="app.diagrams.net" modified="2021-05-21T00:18:29.528Z" agent="5.0 (Macintosh; Intel Mac OS X 10_15_7) AppleWebKit/537.36 (KHTML, like Gecko) Chrome/90.0.4430.212 Safari/537.36" etag="2zRQNBrPc_O10z3fsa-7" version="14.6.13" type="github">
  <diagram id="C5RBs43oDa-KdzZeNtuy" name="Page-1">
    <mxGraphModel dx="1070" dy="765" grid="1" gridSize="10" guides="1" tooltips="1" connect="1" arrows="1" fold="1" page="1" pageScale="1" pageWidth="1169" pageHeight="827" math="0" shadow="0">
      <root>
        <mxCell id="WIyWlLk6GJQsqaUBKTNV-0" />
        <mxCell id="WIyWlLk6GJQsqaUBKTNV-1" parent="WIyWlLk6GJQsqaUBKTNV-0" />
        <mxCell id="NQ31V73bC0aOf-lbz7g2-32" style="edgeStyle=orthogonalEdgeStyle;rounded=0;orthogonalLoop=1;jettySize=auto;html=1;fontSize=12;" edge="1" parent="WIyWlLk6GJQsqaUBKTNV-1" source="NQ31V73bC0aOf-lbz7g2-0" target="NQ31V73bC0aOf-lbz7g2-29">
          <mxGeometry relative="1" as="geometry" />
        </mxCell>
        <object label="User&lt;br&gt;" id="NQ31V73bC0aOf-lbz7g2-0">
          <mxCell style="shape=umlActor;verticalLabelPosition=bottom;verticalAlign=top;html=1;outlineConnect=0;" vertex="1" parent="WIyWlLk6GJQsqaUBKTNV-1">
            <mxGeometry x="220" y="110" width="30" height="60" as="geometry" />
          </mxCell>
        </object>
        <mxCell id="NQ31V73bC0aOf-lbz7g2-28" style="edgeStyle=orthogonalEdgeStyle;rounded=0;orthogonalLoop=1;jettySize=auto;html=1;exitX=1;exitY=0.5;exitDx=0;exitDy=0;fontSize=12;" edge="1" parent="WIyWlLk6GJQsqaUBKTNV-1" source="NQ31V73bC0aOf-lbz7g2-4" target="NQ31V73bC0aOf-lbz7g2-0">
          <mxGeometry relative="1" as="geometry" />
        </mxCell>
        <mxCell id="NQ31V73bC0aOf-lbz7g2-4" value="Google" style="swimlane;labelBackgroundColor=#CCCCFF;" vertex="1" parent="WIyWlLk6GJQsqaUBKTNV-1">
          <mxGeometry x="70" y="110" width="90" height="60" as="geometry" />
        </mxCell>
        <mxCell id="NQ31V73bC0aOf-lbz7g2-9" value="Post: MySQLÂ " style="swimlane;labelBackgroundColor=#FFB570;" vertex="1" parent="WIyWlLk6GJQsqaUBKTNV-1">
          <mxGeometry x="830" y="110" width="90" height="50" as="geometry" />
        </mxCell>
        <mxCell id="NQ31V73bC0aOf-lbz7g2-29" value="" style="strokeWidth=2;html=1;shape=mxgraph.flowchart.decision;whiteSpace=wrap;labelBackgroundColor=none;fontSize=12;" vertex="1" parent="WIyWlLk6GJQsqaUBKTNV-1">
          <mxGeometry x="310" y="100" width="80" height="80" as="geometry" />
        </mxCell>
        <mxCell id="NQ31V73bC0aOf-lbz7g2-30" value="LOGGED IN?" style="text;html=1;strokeColor=none;fillColor=none;align=center;verticalAlign=middle;whiteSpace=wrap;rounded=0;labelBackgroundColor=none;fontSize=12;" vertex="1" parent="WIyWlLk6GJQsqaUBKTNV-1">
          <mxGeometry x="330" y="135" width="40" height="20" as="geometry" />
        </mxCell>
        <mxCell id="NQ31V73bC0aOf-lbz7g2-31" value="&#39;MYSQL&#39;" style="text;html=1;align=center;verticalAlign=middle;resizable=0;points=[];autosize=1;strokeColor=none;fontSize=12;" vertex="1" parent="WIyWlLk6GJQsqaUBKTNV-1">
          <mxGeometry x="90" y="140" width="60" height="20" as="geometry" />
        </mxCell>
        <mxCell id="NQ31V73bC0aOf-lbz7g2-46" style="edgeStyle=orthogonalEdgeStyle;rounded=0;orthogonalLoop=1;jettySize=auto;html=1;fontSize=12;" edge="1" parent="WIyWlLk6GJQsqaUBKTNV-1" source="NQ31V73bC0aOf-lbz7g2-42">
          <mxGeometry relative="1" as="geometry">
            <mxPoint x="450" y="140" as="targetPoint" />
          </mxGeometry>
        </mxCell>
        <mxCell id="NQ31V73bC0aOf-lbz7g2-42" value="&lt;font color=&quot;#ffffff&quot;&gt;Y&lt;/font&gt;" style="ellipse;whiteSpace=wrap;html=1;aspect=fixed;labelBackgroundColor=none;fontSize=12;strokeColor=#00CC66;fillColor=#00CC00;" vertex="1" parent="WIyWlLk6GJQsqaUBKTNV-1">
          <mxGeometry x="380" y="130" width="20" height="20" as="geometry" />
        </mxCell>
        <mxCell id="NQ31V73bC0aOf-lbz7g2-45" value="" style="group" vertex="1" connectable="0" parent="WIyWlLk6GJQsqaUBKTNV-1">
          <mxGeometry x="450" y="100" width="80" height="80" as="geometry" />
        </mxCell>
        <mxCell id="NQ31V73bC0aOf-lbz7g2-39" value="" style="strokeWidth=2;html=1;shape=mxgraph.flowchart.decision;whiteSpace=wrap;labelBackgroundColor=none;fontSize=12;" vertex="1" parent="NQ31V73bC0aOf-lbz7g2-45">
          <mxGeometry width="80" height="80" as="geometry" />
        </mxCell>
        <mxCell id="NQ31V73bC0aOf-lbz7g2-40" value="Premium&lt;br&gt;Member?" style="text;html=1;strokeColor=none;fillColor=none;align=center;verticalAlign=middle;whiteSpace=wrap;rounded=0;labelBackgroundColor=none;fontSize=12;" vertex="1" parent="NQ31V73bC0aOf-lbz7g2-45">
          <mxGeometry x="20" y="30" width="40" height="20" as="geometry" />
        </mxCell>
        <mxCell id="NQ31V73bC0aOf-lbz7g2-93" style="edgeStyle=orthogonalEdgeStyle;rounded=0;orthogonalLoop=1;jettySize=auto;html=1;fontSize=12;" edge="1" parent="WIyWlLk6GJQsqaUBKTNV-1" source="NQ31V73bC0aOf-lbz7g2-47" target="NQ31V73bC0aOf-lbz7g2-59">
          <mxGeometry relative="1" as="geometry" />
        </mxCell>
        <mxCell id="NQ31V73bC0aOf-lbz7g2-47" value="&lt;font color=&quot;#ffffff&quot;&gt;N&lt;/font&gt;" style="ellipse;whiteSpace=wrap;html=1;aspect=fixed;labelBackgroundColor=none;fontSize=12;fillColor=#CC0000;strokeColor=#CC0000;" vertex="1" parent="WIyWlLk6GJQsqaUBKTNV-1">
          <mxGeometry x="340" y="170" width="20" height="20" as="geometry" />
        </mxCell>
        <mxCell id="NQ31V73bC0aOf-lbz7g2-48" value="" style="group" vertex="1" connectable="0" parent="WIyWlLk6GJQsqaUBKTNV-1">
          <mxGeometry x="310" y="360" width="80" height="90" as="geometry" />
        </mxCell>
        <mxCell id="NQ31V73bC0aOf-lbz7g2-35" value="" style="strokeWidth=2;html=1;shape=mxgraph.flowchart.decision;whiteSpace=wrap;labelBackgroundColor=none;fontSize=12;" vertex="1" parent="NQ31V73bC0aOf-lbz7g2-48">
          <mxGeometry width="80" height="80" as="geometry" />
        </mxCell>
        <mxCell id="NQ31V73bC0aOf-lbz7g2-36" value="&lt;font style=&quot;font-size: 10px&quot;&gt;COOKIE:&lt;br&gt;Been here&lt;br&gt;before?&lt;/font&gt;" style="text;html=1;strokeColor=none;fillColor=none;align=center;verticalAlign=middle;whiteSpace=wrap;rounded=0;labelBackgroundColor=none;fontSize=12;" vertex="1" parent="NQ31V73bC0aOf-lbz7g2-48">
          <mxGeometry y="19" width="80" height="41" as="geometry" />
        </mxCell>
        <mxCell id="NQ31V73bC0aOf-lbz7g2-52" value="&lt;font color=&quot;#ffffff&quot;&gt;Y&lt;/font&gt;" style="ellipse;whiteSpace=wrap;html=1;aspect=fixed;labelBackgroundColor=none;fontSize=12;strokeColor=#00CC66;fillColor=#00CC00;" vertex="1" parent="NQ31V73bC0aOf-lbz7g2-48">
          <mxGeometry x="70" y="30" width="20" height="20" as="geometry" />
        </mxCell>
        <mxCell id="NQ31V73bC0aOf-lbz7g2-89" value="&lt;font color=&quot;#ffffff&quot;&gt;N&lt;/font&gt;" style="ellipse;whiteSpace=wrap;html=1;aspect=fixed;labelBackgroundColor=none;fontSize=12;fillColor=#CC0000;strokeColor=#CC0000;" vertex="1" parent="NQ31V73bC0aOf-lbz7g2-48">
          <mxGeometry x="30" y="70" width="20" height="20" as="geometry" />
        </mxCell>
        <mxCell id="NQ31V73bC0aOf-lbz7g2-88" style="edgeStyle=orthogonalEdgeStyle;rounded=0;orthogonalLoop=1;jettySize=auto;html=1;entryX=0;entryY=0.5;entryDx=0;entryDy=0;fontSize=12;" edge="1" parent="WIyWlLk6GJQsqaUBKTNV-1" source="NQ31V73bC0aOf-lbz7g2-57" target="NQ31V73bC0aOf-lbz7g2-77">
          <mxGeometry relative="1" as="geometry">
            <Array as="points">
              <mxPoint x="550" y="180" />
              <mxPoint x="550" y="280" />
            </Array>
          </mxGeometry>
        </mxCell>
        <mxCell id="NQ31V73bC0aOf-lbz7g2-57" value="&lt;font color=&quot;#ffffff&quot;&gt;N&lt;/font&gt;" style="ellipse;whiteSpace=wrap;html=1;aspect=fixed;labelBackgroundColor=none;fontSize=12;fillColor=#CC0000;strokeColor=#CC0000;" vertex="1" parent="WIyWlLk6GJQsqaUBKTNV-1">
          <mxGeometry x="480" y="170" width="20" height="20" as="geometry" />
        </mxCell>
        <mxCell id="NQ31V73bC0aOf-lbz7g2-58" value="" style="group" vertex="1" connectable="0" parent="WIyWlLk6GJQsqaUBKTNV-1">
          <mxGeometry x="310" y="230" width="80" height="90" as="geometry" />
        </mxCell>
        <mxCell id="NQ31V73bC0aOf-lbz7g2-59" value="" style="strokeWidth=2;html=1;shape=mxgraph.flowchart.decision;whiteSpace=wrap;labelBackgroundColor=none;fontSize=12;" vertex="1" parent="NQ31V73bC0aOf-lbz7g2-58">
          <mxGeometry width="80" height="80" as="geometry" />
        </mxCell>
        <mxCell id="NQ31V73bC0aOf-lbz7g2-60" value="&lt;span style=&quot;font-size: 10px&quot;&gt;COOKIE:&amp;nbsp;&lt;br&gt;Are you a member?&lt;br&gt;&lt;/span&gt;" style="text;html=1;strokeColor=none;fillColor=none;align=center;verticalAlign=middle;whiteSpace=wrap;rounded=0;labelBackgroundColor=none;fontSize=12;" vertex="1" parent="NQ31V73bC0aOf-lbz7g2-58">
          <mxGeometry y="19" width="80" height="41" as="geometry" />
        </mxCell>
        <mxCell id="NQ31V73bC0aOf-lbz7g2-63" value="&lt;font color=&quot;#ffffff&quot;&gt;Y&lt;/font&gt;" style="ellipse;whiteSpace=wrap;html=1;aspect=fixed;labelBackgroundColor=none;fontSize=12;strokeColor=#00CC66;fillColor=#00CC00;" vertex="1" parent="NQ31V73bC0aOf-lbz7g2-58">
          <mxGeometry x="70" y="30" width="20" height="20" as="geometry" />
        </mxCell>
        <mxCell id="NQ31V73bC0aOf-lbz7g2-49" value="&lt;font color=&quot;#ffffff&quot;&gt;N&lt;/font&gt;" style="ellipse;whiteSpace=wrap;html=1;aspect=fixed;labelBackgroundColor=none;fontSize=12;fillColor=#CC0000;strokeColor=#CC0000;" vertex="1" parent="NQ31V73bC0aOf-lbz7g2-58">
          <mxGeometry x="30" y="70" width="20" height="20" as="geometry" />
        </mxCell>
        <mxCell id="NQ31V73bC0aOf-lbz7g2-96" style="edgeStyle=orthogonalEdgeStyle;rounded=0;orthogonalLoop=1;jettySize=auto;html=1;fontSize=12;" edge="1" parent="WIyWlLk6GJQsqaUBKTNV-1" source="NQ31V73bC0aOf-lbz7g2-62">
          <mxGeometry relative="1" as="geometry">
            <mxPoint x="466" y="155" as="targetPoint" />
            <Array as="points">
              <mxPoint x="466" y="190" />
              <mxPoint x="466" y="190" />
            </Array>
          </mxGeometry>
        </mxCell>
        <mxCell id="NQ31V73bC0aOf-lbz7g2-62" value="Log-in modal" style="swimlane;labelBackgroundColor=none;strokeColor=#314354;fillColor=#647687;fontColor=#ffffff;swimlaneFillColor=#E6E6E6;" vertex="1" parent="WIyWlLk6GJQsqaUBKTNV-1">
          <mxGeometry x="420" y="200" width="90" height="60" as="geometry" />
        </mxCell>
        <mxCell id="NQ31V73bC0aOf-lbz7g2-101" value="&lt;div&gt;&lt;span&gt;&lt;font face=&quot;helvetica&quot;&gt;Wanna log in?&lt;/font&gt;&lt;/span&gt;&lt;/div&gt;" style="text;whiteSpace=wrap;html=1;fontSize=12;align=center;" vertex="1" parent="NQ31V73bC0aOf-lbz7g2-62">
          <mxGeometry y="20" width="90" height="40" as="geometry" />
        </mxCell>
        <mxCell id="NQ31V73bC0aOf-lbz7g2-95" value="&lt;font color=&quot;#ffffff&quot;&gt;Y&lt;/font&gt;" style="ellipse;whiteSpace=wrap;html=1;aspect=fixed;labelBackgroundColor=none;fontSize=12;strokeColor=#00CC66;fillColor=#00CC00;" vertex="1" parent="NQ31V73bC0aOf-lbz7g2-62">
          <mxGeometry x="35" y="-10" width="20" height="20" as="geometry" />
        </mxCell>
        <mxCell id="NQ31V73bC0aOf-lbz7g2-74" value="" style="group" vertex="1" connectable="0" parent="WIyWlLk6GJQsqaUBKTNV-1">
          <mxGeometry x="600" y="80" width="200" height="120" as="geometry" />
        </mxCell>
        <mxCell id="NQ31V73bC0aOf-lbz7g2-73" value="" style="rounded=0;whiteSpace=wrap;html=1;labelBackgroundColor=none;fontSize=12;strokeColor=#B09500;fillColor=#e3c800;fontColor=#000000;" vertex="1" parent="NQ31V73bC0aOf-lbz7g2-74">
          <mxGeometry width="200" height="120" as="geometry" />
        </mxCell>
        <mxCell id="NQ31V73bC0aOf-lbz7g2-72" value="&lt;h1&gt;Gold - A&lt;/h1&gt;&lt;p&gt;A Premium paying member&lt;/p&gt;" style="text;html=1;strokeColor=none;fillColor=none;spacing=5;spacingTop=-20;whiteSpace=wrap;overflow=hidden;rounded=0;labelBackgroundColor=none;fontSize=12;" vertex="1" parent="NQ31V73bC0aOf-lbz7g2-74">
          <mxGeometry x="5" width="190" height="120" as="geometry" />
        </mxCell>
        <mxCell id="NQ31V73bC0aOf-lbz7g2-76" value="" style="group;fillColor=#bac8d3;strokeColor=#23445d;" vertex="1" connectable="0" parent="WIyWlLk6GJQsqaUBKTNV-1">
          <mxGeometry x="600" y="220" width="200" height="120" as="geometry" />
        </mxCell>
        <mxCell id="NQ31V73bC0aOf-lbz7g2-77" value="" style="rounded=0;whiteSpace=wrap;html=1;labelBackgroundColor=none;fontSize=12;strokeColor=#23445d;fillColor=#bac8d3;" vertex="1" parent="NQ31V73bC0aOf-lbz7g2-76">
          <mxGeometry width="200" height="120" as="geometry" />
        </mxCell>
        <mxCell id="NQ31V73bC0aOf-lbz7g2-78" value="&lt;h1&gt;Silver - B&lt;/h1&gt;&lt;h1&gt;&lt;/h1&gt;&lt;p&gt;A Silver free member&lt;/p&gt;" style="text;html=1;strokeColor=none;fillColor=none;spacing=5;spacingTop=-20;whiteSpace=wrap;overflow=hidden;rounded=0;labelBackgroundColor=none;fontSize=12;" vertex="1" parent="NQ31V73bC0aOf-lbz7g2-76">
          <mxGeometry x="7.5" width="185" height="120" as="geometry" />
        </mxCell>
        <mxCell id="NQ31V73bC0aOf-lbz7g2-79" value="" style="group;fillColor=#fad7ac;strokeColor=#b46504;" vertex="1" connectable="0" parent="WIyWlLk6GJQsqaUBKTNV-1">
          <mxGeometry x="600" y="360" width="200" height="120" as="geometry" />
        </mxCell>
        <mxCell id="NQ31V73bC0aOf-lbz7g2-80" value="" style="rounded=0;whiteSpace=wrap;html=1;labelBackgroundColor=none;fontSize=12;strokeColor=#b46504;fillColor=#fad7ac;" vertex="1" parent="NQ31V73bC0aOf-lbz7g2-79">
          <mxGeometry width="200" height="120" as="geometry" />
        </mxCell>
        <mxCell id="NQ31V73bC0aOf-lbz7g2-81" value="&lt;h1&gt;Bronze - C&lt;/h1&gt;&lt;h1&gt;&lt;/h1&gt;&lt;p&gt;Returning non-members&lt;/p&gt;" style="text;html=1;strokeColor=none;fillColor=none;spacing=5;spacingTop=-20;whiteSpace=wrap;overflow=hidden;rounded=0;labelBackgroundColor=none;fontSize=12;" vertex="1" parent="NQ31V73bC0aOf-lbz7g2-79">
          <mxGeometry x="10" width="180" height="120" as="geometry" />
        </mxCell>
        <mxCell id="NQ31V73bC0aOf-lbz7g2-82" value="" style="group;fillColor=#cce5ff;strokeColor=#36393d;" vertex="1" connectable="0" parent="WIyWlLk6GJQsqaUBKTNV-1">
          <mxGeometry x="600" y="500" width="200" height="120" as="geometry" />
        </mxCell>
        <mxCell id="NQ31V73bC0aOf-lbz7g2-83" value="" style="rounded=0;whiteSpace=wrap;html=1;labelBackgroundColor=none;fontSize=12;" vertex="1" parent="NQ31V73bC0aOf-lbz7g2-82">
          <mxGeometry width="200" height="120" as="geometry" />
        </mxCell>
        <mxCell id="NQ31V73bC0aOf-lbz7g2-84" value="&lt;h1&gt;Paper - D&lt;/h1&gt;&lt;div&gt;First time visitors&lt;br&gt;&lt;/div&gt;" style="text;html=1;strokeColor=none;fillColor=none;spacing=5;spacingTop=-20;whiteSpace=wrap;overflow=hidden;rounded=0;labelBackgroundColor=none;fontSize=12;" vertex="1" parent="NQ31V73bC0aOf-lbz7g2-82">
          <mxGeometry x="7.5" width="162.5" height="120" as="geometry" />
        </mxCell>
        <mxCell id="NQ31V73bC0aOf-lbz7g2-86" style="edgeStyle=orthogonalEdgeStyle;rounded=0;orthogonalLoop=1;jettySize=auto;html=1;entryX=0;entryY=0.5;entryDx=0;entryDy=0;fontSize=12;" edge="1" parent="WIyWlLk6GJQsqaUBKTNV-1" source="NQ31V73bC0aOf-lbz7g2-39" target="NQ31V73bC0aOf-lbz7g2-73">
          <mxGeometry relative="1" as="geometry" />
        </mxCell>
        <mxCell id="NQ31V73bC0aOf-lbz7g2-56" value="&lt;font color=&quot;#ffffff&quot;&gt;Y&lt;/font&gt;" style="ellipse;whiteSpace=wrap;html=1;aspect=fixed;labelBackgroundColor=none;fontSize=12;strokeColor=#00CC66;fillColor=#00CC00;" vertex="1" parent="WIyWlLk6GJQsqaUBKTNV-1">
          <mxGeometry x="520" y="130" width="20" height="20" as="geometry" />
        </mxCell>
        <mxCell id="NQ31V73bC0aOf-lbz7g2-92" style="edgeStyle=orthogonalEdgeStyle;rounded=0;orthogonalLoop=1;jettySize=auto;html=1;entryX=0.5;entryY=0;entryDx=0;entryDy=0;entryPerimeter=0;fontSize=12;" edge="1" parent="WIyWlLk6GJQsqaUBKTNV-1" source="NQ31V73bC0aOf-lbz7g2-49" target="NQ31V73bC0aOf-lbz7g2-35">
          <mxGeometry relative="1" as="geometry" />
        </mxCell>
        <mxCell id="NQ31V73bC0aOf-lbz7g2-100" style="edgeStyle=orthogonalEdgeStyle;rounded=0;orthogonalLoop=1;jettySize=auto;html=1;fontSize=12;" edge="1" parent="WIyWlLk6GJQsqaUBKTNV-1" source="NQ31V73bC0aOf-lbz7g2-63">
          <mxGeometry relative="1" as="geometry">
            <mxPoint x="420" y="240" as="targetPoint" />
            <Array as="points">
              <mxPoint x="390" y="240" />
              <mxPoint x="420" y="240" />
            </Array>
          </mxGeometry>
        </mxCell>
        <mxCell id="NQ31V73bC0aOf-lbz7g2-102" value="&lt;font color=&quot;#ffffff&quot;&gt;N&lt;/font&gt;" style="ellipse;whiteSpace=wrap;html=1;aspect=fixed;labelBackgroundColor=none;fontSize=12;fillColor=#CC0000;strokeColor=#CC0000;" vertex="1" parent="WIyWlLk6GJQsqaUBKTNV-1">
          <mxGeometry x="455" y="250" width="20" height="20" as="geometry" />
        </mxCell>
        <mxCell id="NQ31V73bC0aOf-lbz7g2-103" style="edgeStyle=orthogonalEdgeStyle;rounded=0;orthogonalLoop=1;jettySize=auto;html=1;entryX=0.001;entryY=0.333;entryDx=0;entryDy=0;fontSize=12;entryPerimeter=0;" edge="1" parent="WIyWlLk6GJQsqaUBKTNV-1" source="NQ31V73bC0aOf-lbz7g2-52" target="NQ31V73bC0aOf-lbz7g2-80">
          <mxGeometry relative="1" as="geometry" />
        </mxCell>
        <mxCell id="NQ31V73bC0aOf-lbz7g2-104" style="edgeStyle=orthogonalEdgeStyle;rounded=0;orthogonalLoop=1;jettySize=auto;html=1;fontSize=12;entryX=0;entryY=0.171;entryDx=0;entryDy=0;entryPerimeter=0;" edge="1" parent="WIyWlLk6GJQsqaUBKTNV-1" source="NQ31V73bC0aOf-lbz7g2-89" target="NQ31V73bC0aOf-lbz7g2-83">
          <mxGeometry relative="1" as="geometry">
            <mxPoint x="600" y="577" as="targetPoint" />
            <Array as="points">
              <mxPoint x="350" y="521" />
              <mxPoint x="600" y="521" />
            </Array>
          </mxGeometry>
        </mxCell>
      </root>
    </mxGraphModel>
  </diagram>
</mxfile>
